<svg width="205" height="72" viewBox="0 0 205 72" fill="none" xmlns="http://www.w3.org/2000/svg">
<rect y="5" width="205" height="67" rx="33.5" fill="white"/>
<path d="M35.5459 20.172L43.3159 20.214C47.3759 20.214 50.9459 21.684 54.0259 24.624C57.1059 27.536 58.6459 31.134 58.6459 35.418C58.6459 39.674 57.1339 43.328 54.1099 46.38C51.1139 49.432 47.4739 50.958 43.1899 50.958H35.5039C33.7959 50.958 32.7319 50.608 32.3119 49.908C31.9759 49.32 31.8079 48.424 31.8079 47.22V23.868C31.8079 23.196 31.8219 22.706 31.8499 22.398C31.9059 22.09 32.0459 21.726 32.2699 21.306C32.6619 20.55 33.7539 20.172 35.5459 20.172ZM43.3159 43.524C45.3319 43.524 47.1519 42.782 48.7759 41.298C50.3999 39.786 51.2119 37.896 51.2119 35.628C51.2119 33.36 50.4139 31.47 48.8179 29.958C47.2499 28.418 45.4019 27.648 43.2739 27.648H39.2419V43.524H43.3159ZM82.7162 37.308C82.7162 39.016 82.2822 40.29 81.4142 41.13C80.5742 41.942 79.6362 42.348 78.6002 42.348H68.6462C68.6462 43.132 69.1082 43.79 70.0322 44.322C70.9562 44.854 71.8802 45.12 72.8042 45.12C74.4282 45.12 75.7022 44.952 76.6262 44.616L77.0882 44.448C77.7602 44.14 78.3202 43.986 78.7682 43.986C79.6642 43.986 80.4342 44.616 81.0782 45.876C81.4422 46.632 81.6242 47.276 81.6242 47.808C81.6242 50.3 78.6422 51.546 72.6782 51.546C70.6062 51.546 68.7582 51.196 67.1342 50.496C65.5382 49.768 64.2922 48.816 63.3962 47.64C61.6322 45.372 60.7502 42.838 60.7502 40.038C60.7502 36.51 61.8842 33.696 64.1522 31.596C66.4482 29.468 69.3042 28.404 72.7202 28.404C76.6122 28.404 79.4682 29.776 81.2882 32.52C82.2402 33.976 82.7162 35.572 82.7162 37.308ZM73.8542 38.526C74.9182 38.526 75.4502 38.078 75.4502 37.182C75.4502 36.538 75.1982 36.02 74.6942 35.628C74.2182 35.236 73.5182 35.04 72.5942 35.04C71.6982 35.04 70.8022 35.418 69.9062 36.174C69.0102 36.902 68.5622 37.686 68.5622 38.526H73.8542ZM106.487 29.37C107.943 30.238 108.671 31.162 108.671 32.142C108.671 32.702 108.391 33.472 107.831 34.452L99.1369 49.362C98.8569 49.838 98.4089 50.272 97.7929 50.664C97.1769 51.028 96.5609 51.21 95.9449 51.21C95.3569 51.21 94.7829 51.07 94.2229 50.79C93.6909 50.482 93.3129 50.174 93.0889 49.866L92.7109 49.404L83.9749 34.452C83.4149 33.528 83.1349 32.772 83.1349 32.184C83.1349 31.176 83.8629 30.238 85.3189 29.37C86.3829 28.754 87.2229 28.446 87.8389 28.446C88.4549 28.446 88.9309 28.642 89.2669 29.034C89.6309 29.398 90.0089 29.958 90.4009 30.714L95.9029 41.298L101.405 30.714C101.713 30.182 101.937 29.804 102.077 29.58C102.245 29.328 102.497 29.09 102.833 28.866C103.169 28.614 103.617 28.488 104.177 28.488C104.737 28.488 105.507 28.782 106.487 29.37ZM123.988 39.912L129.574 44.532C130.274 45.12 130.708 45.568 130.876 45.876C131.072 46.184 131.17 46.478 131.17 46.758C131.17 47.43 130.736 48.34 129.868 49.488C128.916 50.664 128.076 51.252 127.348 51.252C126.732 51.252 125.878 50.846 124.786 50.034L124.366 49.74C123.722 49.208 122.728 48.284 121.384 46.968C120.04 45.624 119.018 44.672 118.318 44.112V47.346C118.318 47.99 118.29 48.48 118.234 48.816C118.206 49.124 118.08 49.488 117.856 49.908C117.492 50.636 116.414 51 114.622 51C112.858 51 111.78 50.622 111.388 49.866C111.192 49.446 111.066 49.082 111.01 48.774C110.982 48.438 110.968 47.948 110.968 47.304V22.146C110.968 21.502 110.982 21.026 111.01 20.718C111.066 20.382 111.192 20.004 111.388 19.584C111.78 18.828 112.872 18.45 114.664 18.45C116.008 18.45 116.96 18.688 117.52 19.164C117.996 19.556 118.248 20.172 118.276 21.012C118.304 21.264 118.318 21.656 118.318 22.188V35.502C118.822 35.082 119.578 34.368 120.586 33.36C121.622 32.352 122.392 31.638 122.896 31.218L123.4 30.882C124.38 30.126 125.22 29.748 125.92 29.748C126.62 29.748 127.418 30.322 128.314 31.47C129.238 32.59 129.7 33.472 129.7 34.116C129.7 34.76 129.182 35.516 128.146 36.384L123.988 39.912ZM142.042 50.916C139.214 50.916 136.862 49.852 134.986 47.724C133.138 45.568 132.214 42.95 132.214 39.87V32.52C132.214 31.848 132.228 31.358 132.256 31.05C132.312 30.742 132.438 30.378 132.634 29.958C133.026 29.202 134.118 28.824 135.91 28.824C137.87 28.824 139.018 29.356 139.354 30.42C139.522 30.868 139.606 31.582 139.606 32.562V39.912C139.606 41.06 139.928 41.956 140.572 42.6C141.244 43.244 142.126 43.566 143.218 43.566C144.338 43.566 145.234 43.23 145.906 42.558C146.606 41.886 146.956 41.004 146.956 39.912V32.478C146.956 31.834 146.97 31.358 146.998 31.05C147.054 30.714 147.194 30.336 147.418 29.916C147.782 29.188 148.86 28.824 150.652 28.824C152.416 28.824 153.494 29.202 153.886 29.958C154.082 30.378 154.194 30.756 154.222 31.092C154.278 31.4 154.306 31.876 154.306 32.52V47.388C154.306 48.004 154.278 48.48 154.222 48.816C154.194 49.124 154.068 49.474 153.844 49.866C153.424 50.594 152.346 50.958 150.61 50.958C148.902 50.958 147.852 50.622 147.46 49.95C147.18 49.474 147.04 48.9 147.04 48.228C146.928 48.424 146.676 48.704 146.284 49.068C145.892 49.432 145.514 49.74 145.15 49.992C144.198 50.608 143.162 50.916 142.042 50.916ZM170.537 36.3L167.807 36.132V41.928C167.807 42.684 167.919 43.23 168.143 43.566C168.395 43.902 168.843 44.07 169.487 44.07C170.159 44.07 170.663 44.098 170.999 44.154C171.363 44.182 171.741 44.308 172.133 44.532C172.777 44.896 173.099 45.834 173.099 47.346C173.099 49.11 172.707 50.188 171.923 50.58C171.503 50.776 171.125 50.902 170.789 50.958C170.481 50.986 170.019 51 169.403 51C166.491 51 164.279 50.342 162.767 49.026C161.255 47.71 160.499 45.484 160.499 42.348V36.132C159.967 36.216 159.393 36.258 158.777 36.258C158.161 36.258 157.643 36.02 157.223 35.544C156.831 35.068 156.635 34.256 156.635 33.108C156.635 31.96 156.705 31.134 156.845 30.63C156.985 30.098 157.181 29.72 157.433 29.496C157.881 29.132 158.441 28.95 159.113 28.95L160.499 29.118V24.792C160.499 24.148 160.513 23.672 160.541 23.364C160.597 23.056 160.737 22.72 160.961 22.356C161.325 21.656 162.403 21.306 164.195 21.306C166.099 21.306 167.233 21.824 167.597 22.86C167.737 23.308 167.807 24.022 167.807 25.002V29.118C169.039 29.006 169.963 28.95 170.579 28.95C171.223 28.95 171.699 28.978 172.007 29.034C172.343 29.062 172.721 29.188 173.141 29.412C173.869 29.776 174.233 30.854 174.233 32.646C174.233 34.41 173.855 35.488 173.099 35.88C172.679 36.076 172.301 36.202 171.965 36.258C171.657 36.286 171.181 36.3 170.537 36.3Z" fill="#D81D99"/>
</svg>
